<svg width="38" height="38" viewBox="0 0 38 38" fill="none" xmlns="http://www.w3.org/2000/svg">
<path d="M4.10048 29.3699H33.6928M19.1206 37C28.9951 37 37 28.9411 37 19C37 9.05887 28.9951 1 19.1206 1M19.1206 37C9.24604 37 1.24115 28.9411 1.24115 19C1.24115 9.05887 9.24604 1 19.1206 1M19.1206 37C24.7523 37 29.3177 28.9411 29.3177 19C29.3177 9.05887 24.7523 1 19.1206 1M19.1206 37C13.4889 37 8.92344 28.9411 8.92344 19C8.92344 9.05887 13.4889 1 19.1206 1M19.1206 1V36.9653M1 19.0347H36.7244M4.10048 8.69942H33.6928" stroke="#60CAF4" stroke-miterlimit="10"/>
</svg>
