<svg xmlns="http://www.w3.org/2000/svg" width="153" height="100" viewBox="0 0 153 100" fill="none">
<path d="M117.674 21.8895C124.702 22.3847 130.875 25.9794 136.145 30.1483C141.105 34.0749 146.272 38.6109 148.52 44.5767C150.691 50.3284 150.268 56.8405 148.652 62.7797C146.9 69.2168 143.165 74.731 138.635 79.7429C136.048 82.6079 133.244 85.2937 130.471 87.988C127.655 90.7301 124.887 93.507 121.512 95.6229C120.426 96.3054 121.25 98.0581 122.356 97.3643C125.501 95.3916 128.154 92.962 130.782 90.3976C133.389 87.8509 136.032 85.3318 138.543 82.69C143.441 77.544 147.901 71.7987 150.049 65.0835C152.025 58.8893 152.794 52.0704 151.051 45.8463C149.222 39.3061 144.526 34.6554 139.453 30.2904C133.44 25.1219 126.201 20.5443 117.872 19.9507C116.584 19.8594 116.379 21.7978 117.674 21.8895Z" fill="white"/>
<path d="M120.807 88.5357C120.262 91.5607 119.903 94.6233 119.113 97.613C118.941 98.2734 119.262 98.7888 119.958 98.9045C123.735 99.5211 127.585 99.8194 131.424 99.9585C132.717 100.006 132.922 98.0674 131.622 98.0197C127.776 97.8801 123.933 97.5886 120.156 96.9657C120.439 97.3963 120.717 97.8265 121 98.2571C121.835 95.0928 122.242 91.875 122.819 88.6684C123.044 87.4285 121.032 87.3021 120.814 88.5362L120.807 88.5357Z" fill="white"/>
<path d="M21.1125 2.8032C20.8939 2.60821 20.7888 2.47497 20.6977 2.22256C20.6613 2.12159 20.6459 2.04727 20.6572 1.95193C20.6628 1.90427 20.6951 1.83558 20.7274 1.76689C20.9154 1.40242 21.0599 1.20198 21.4007 0.976388C21.6111 0.83206 21.7751 0.875594 22.0191 0.856068C22.1172 0.84349 22.1887 0.851933 22.2602 0.860375C22.3079 0.866004 22.3794 0.874446 22.4481 0.906723C22.6093 0.974091 22.6724 1.05404 22.8041 1.16626C22.9387 1.25465 23.055 1.29255 23.1601 1.4258C23.3255 1.66282 23.4783 1.80169 23.4922 2.09333C23.4865 2.141 23.4781 2.21251 23.4725 2.26017C23.4387 2.54619 23.3208 2.72561 23.1651 3.02138C23.1062 3.11109 22.9898 3.07319 22.8888 3.1096C22.5916 3.17117 22.4078 3.29448 22.0952 3.28172L22.0713 3.27891C21.8568 3.25358 21.7756 3.12315 21.5933 3.02914C21.4111 2.93512 21.2653 2.94207 21.1125 2.8032ZM16.1547 16.1378C16.1421 16.0397 16.1506 15.9682 16.159 15.8967C16.1815 15.706 16.2489 15.5448 16.3247 15.3121C16.4412 14.9392 16.5381 14.7331 16.6756 14.3868C16.7107 14.2943 16.7402 14.2495 16.7753 14.1569C17.1541 13.4042 17.4544 12.908 17.7715 12.2687C17.9919 11.8356 18.2276 11.4767 18.504 10.9777C18.7215 10.5684 18.8211 10.3385 19.0358 9.95301C19.221 9.61238 19.294 9.4035 19.4792 9.06287C19.541 8.94932 19.5733 8.88063 19.635 8.76709C19.7992 8.39981 19.9409 8.22321 20.0574 7.8503C20.136 7.59375 20.1614 7.37924 20.1867 7.16473C20.2036 7.02172 20.2205 6.87871 20.243 6.68804C20.2486 6.64037 20.2514 6.61653 20.257 6.56887C20.2599 6.54503 20.2599 6.54503 20.2599 6.54503C20.2796 6.37819 20.2698 6.2562 20.2895 6.08936C20.3036 5.97019 20.3148 5.87485 20.3261 5.77951C20.3345 5.70801 20.3458 5.61267 20.3809 5.52015C20.4482 5.35894 20.5072 5.26923 20.6404 5.16413C20.7737 5.05903 20.8746 5.02261 21.0443 5.01848C21.3121 5.00177 21.535 4.95559 21.7495 4.98092C21.8687 4.99499 21.9851 5.0329 22.0986 5.09463C22.529 5.33878 22.6915 5.59964 22.8792 6.0568C23.0907 6.51678 23.0541 6.82662 23.0904 7.3384C23.1029 7.43656 23.0917 7.53189 23.0832 7.6034C23.0692 7.72257 23.0313 7.83893 23.0144 7.98193C22.968 8.16979 22.9091 8.2595 22.8628 8.44736C22.7406 8.86794 22.6858 9.12731 22.5398 9.54507C22.4345 9.82264 22.37 9.96002 22.2409 10.2348C22.1146 10.4857 22.0262 10.6203 21.8971 10.895C21.7708 11.1459 21.6824 11.2805 21.5533 11.5553C21.3386 11.9407 21.1857 12.2127 21.0243 12.5561C20.8601 12.9234 20.6538 13.2374 20.4925 13.5808C20.3254 13.972 20.1136 14.3336 19.9045 14.6714C19.7221 14.9882 19.5425 15.2812 19.3601 15.598C19.3307 15.6428 19.3222 15.7143 19.3166 15.762C19.3081 15.8335 19.2997 15.905 19.3361 16.006C19.3964 16.1098 19.4889 16.1449 19.5842 16.1561C19.6319 16.1617 19.7034 16.1702 19.7539 16.152C19.974 16.1296 20.1998 16.0596 20.3835 15.9363C20.6205 15.771 20.8604 15.5818 21.0343 15.3365C21.2083 15.0912 21.3472 14.9384 21.5239 14.6693C21.639 14.5137 21.6769 14.3974 21.7919 14.2418C21.8775 14.131 21.9308 14.089 22.0346 14.0288C22.3011 13.8186 22.4161 13.663 22.7218 13.5299C22.7989 13.4907 22.8494 13.4725 22.9209 13.4809C22.9924 13.4894 23.0373 13.5188 23.1032 13.5749C23.4143 13.805 23.6358 13.9762 23.7604 14.3534C23.794 14.4782 23.8066 14.5763 23.7925 14.6955C23.7728 14.8623 23.7055 15.0235 23.6563 15.2352C23.5664 15.5871 23.4696 15.7932 23.3082 16.1366C23.0528 16.6623 22.8999 16.9343 22.5758 17.4277C22.4579 17.6071 22.3513 17.6912 22.1676 17.8145C21.4972 18.1703 21.0934 18.316 20.3782 18.6424C20.3039 18.6578 20.2534 18.676 20.1791 18.6913C19.7893 18.7178 19.5481 18.7135 19.1611 18.7162C19.1135 18.7105 19.0658 18.7049 19.0181 18.6993C18.8989 18.6852 18.8036 18.6739 18.6634 18.6332C18.4307 18.5574 18.2849 18.5644 18.0578 18.4409C17.5826 18.1673 17.3106 18.0143 16.8944 17.651C16.6547 17.4294 16.5791 17.2513 16.4432 16.9694C16.2863 16.6609 16.1868 16.48 16.1547 16.1378Z" fill="white"/>
<path d="M33.8511 17.7198C33.9057 17.8713 33.9688 17.9512 33.9996 18.0998C34.0065 18.2457 34.0401 18.3705 33.9517 18.505C33.6978 18.8134 33.2911 18.9829 32.9378 19.1103C32.7358 19.1831 32.5859 19.0204 32.3742 18.9713C32.1863 18.9249 32.091 18.9137 31.9003 18.8911C31.6858 18.8658 31.5372 18.8966 31.3311 18.7998C30.9428 18.6089 30.7956 18.4224 30.4368 18.1867C30.2364 18.0422 30.1018 17.9538 29.9014 17.8093C29.6799 17.6381 29.492 17.5918 29.2972 17.3996C28.6679 16.7936 28.3526 16.3939 27.8033 15.7249C27.7402 15.6449 27.7487 15.5734 27.7095 15.4963C27.5946 15.2411 27.5161 15.0868 27.4013 14.8316C27.25 14.4754 27.1772 14.2735 27.0764 13.8991C26.991 13.599 26.9392 13.4237 26.8776 13.1264C26.8371 12.8558 26.8539 12.7128 26.8372 12.445C26.8177 12.201 26.8346 12.058 26.8417 11.793C26.8376 11.6234 26.8488 11.528 26.8447 11.3584C26.8378 11.2125 26.8728 11.12 26.8897 10.977C26.9094 10.8102 26.9179 10.7387 26.9614 10.5746C27.0723 10.2494 27.0976 10.0349 27.2085 9.70965C27.2928 9.40543 27.363 9.22039 27.4711 8.91898C27.7223 8.22365 27.8417 7.8269 28.1616 7.16385C28.3553 6.75171 28.5236 6.55409 28.7832 6.19806C28.9571 5.95277 29.0665 5.84485 29.2615 5.62621C29.5364 5.3445 29.7048 5.14688 29.9951 4.93949C30.2321 4.77414 30.493 4.61161 30.7538 4.44908C30.9614 4.32858 31.1928 4.2109 31.3975 4.11425C31.5756 4.03861 31.7537 3.96297 31.8814 3.90554C31.9795 3.89296 32.051 3.9014 32.1225 3.90985C32.2655 3.92673 32.3819 3.96464 32.4926 4.05021C32.6902 4.21854 33.1262 4.41502 33.2439 4.64642C33.2508 4.79224 33.2606 4.91422 33.2437 5.05723C33.2324 5.15257 33.1945 5.26893 33.1833 5.36426C33.0893 5.5465 32.9532 5.67543 32.7933 5.80155C32.6362 5.90384 32.4792 6.00613 32.3193 6.13225C31.7176 6.52038 31.221 7.04175 30.8114 7.64588C30.6935 7.8253 30.5967 8.03136 30.5027 8.2136C29.9919 9.26495 29.9146 9.71499 29.5609 10.6641C29.5258 10.7566 29.4963 10.8014 29.485 10.8968C29.412 11.1057 29.3713 11.2459 29.3222 11.4576C29.2843 11.5739 29.252 11.6426 29.2617 11.7646C29.2672 12.1277 29.2685 12.3212 29.3216 12.69C29.3691 13.1064 29.3648 13.3476 29.5133 13.7276C29.6169 14.0782 29.7374 14.2858 29.9658 14.6027C30.0653 14.7836 30.1732 14.893 30.3498 15.0347C30.6553 15.3125 30.8558 15.457 31.2146 15.6927C31.4389 15.84 31.6001 15.9074 31.851 16.0336C32.0781 16.1571 32.1917 16.2189 32.4426 16.3452C32.7832 16.5304 32.999 16.7492 33.2807 17.0241C33.5835 17.3257 33.6522 17.358 33.8511 17.7198Z" fill="white"/>
<path d="M45.4067 8.25752C45.4038 8.28135 45.4038 8.28135 45.401 8.30518C45.3813 8.47203 45.3462 8.56455 45.3027 8.72858C45.1903 9.27114 45.1327 9.55434 45.0203 10.0969C45.0006 10.2637 44.9683 10.3324 44.9486 10.4993C44.8573 11.0685 44.8417 11.405 44.7503 11.9742C44.7137 12.284 44.6912 12.4747 44.607 12.7789C44.5227 13.0832 44.4287 13.2654 44.3206 13.5668C44.2097 13.892 44.1157 14.0743 44.0048 14.3995C43.8616 14.7934 43.8096 15.029 43.6903 15.4257C43.5738 15.7986 43.5246 16.0103 43.3871 16.3566C43.1176 17.0014 42.7008 17.8705 42.6124 18.0051C42.2084 18.5616 41.8043 19.118 41.3344 19.6184C41.1451 19.7894 40.9795 19.9632 40.7607 20.179C40.6598 20.2154 40.5055 20.2938 40.3779 20.3513C40.2559 20.361 40.1577 20.3736 40.0386 20.3595C39.8956 20.3427 39.7554 20.3019 39.6124 20.2851C39.5675 20.2556 39.5198 20.25 39.475 20.2205C39.3825 20.1854 39.3166 20.1293 39.2479 20.097C38.8204 19.829 38.4461 19.519 38.1308 19.1193C38.0285 18.9622 37.9024 18.8023 37.7735 18.6663C37.4105 18.2609 37.2649 17.857 37.0169 17.2961C36.8236 16.8866 36.7564 16.637 36.6402 16.1883C36.5787 15.891 36.5773 15.6975 36.5663 15.3821C36.53 14.8703 36.5161 14.5786 36.5037 14.0697C36.4913 13.5607 36.5279 13.2509 36.5393 12.7447C36.5352 12.575 36.5436 12.5035 36.5633 12.3367C36.5902 11.9049 36.6393 11.6932 36.6661 11.2613C36.6802 11.1422 36.6915 11.0468 36.6817 10.9248C36.6819 10.514 36.6147 10.2644 36.6625 9.85924C36.7216 9.35872 36.7484 8.92689 36.7963 8.5217C36.8892 7.73516 36.9946 7.04678 37.1338 6.07238C37.1535 5.90554 37.2096 5.83967 37.2532 5.67564C37.2911 5.55928 37.2995 5.48778 37.3374 5.37142C37.4483 5.04618 37.5185 4.86113 37.6084 4.50924C37.6547 4.32138 37.6422 4.22323 37.7123 4.03818C37.8064 3.85595 37.8471 3.71576 38.007 3.58964C38.1669 3.46352 38.2973 3.38225 38.4936 3.35709C38.6394 3.35014 38.7376 3.33757 38.8567 3.35164C38.9521 3.3629 39.0474 3.37415 39.161 3.43589C39.2983 3.50044 39.3319 3.62525 39.3389 3.77107C39.3668 3.94354 39.35 4.08654 39.3331 4.22955C39.3218 4.32489 39.3134 4.39639 39.3021 4.49173C39.2937 4.56323 39.2852 4.63474 39.274 4.73007C39.2415 5.20958 39.2793 5.50403 39.223 5.98072C39.1892 6.26673 39.0742 6.42232 39.0404 6.70833C38.9954 7.08968 38.9378 7.37288 38.9012 7.68273C38.8477 8.13558 38.8209 8.56742 38.7505 9.16328C38.7421 9.23478 38.7631 9.26143 38.7547 9.33293C38.7461 9.81525 38.7628 10.0831 38.7542 10.5654C38.7639 10.6874 38.7527 10.7827 38.7624 10.9047C38.7707 11.244 38.7692 11.4613 38.7536 11.7978C38.7465 12.0628 38.7058 12.203 38.6987 12.468C38.6775 12.8522 38.6998 13.0723 38.6786 13.4565C38.6574 13.8406 38.6321 14.0551 38.6348 14.4421C38.6528 14.9034 38.6723 15.1474 38.7647 15.5933C38.9955 16.7081 39.3152 16.8666 39.646 16.9299C39.646 16.9299 39.6699 16.9327 39.6937 16.9355C40.1465 16.989 40.688 16.497 41.2997 15.4093C41.4555 15.1135 41.478 14.9228 41.5861 14.6214C41.6619 14.3887 41.7026 14.2485 41.7812 13.992C41.8599 13.7354 41.8739 13.6162 41.9526 13.3597C41.9877 13.2672 41.9933 13.2195 42.0284 13.127C42.1014 12.9181 42.1183 12.7751 42.1913 12.5662C42.2727 12.2858 42.3134 12.1456 42.3949 11.8652C42.4412 11.6774 42.4791 11.561 42.5016 11.3703C42.5817 10.8965 42.5889 10.6315 42.669 10.1576C42.7181 9.94591 42.7589 9.80572 42.808 9.59402C42.8516 9.43 42.8838 9.36131 42.9035 9.19447C42.9232 9.02762 42.9429 8.86078 42.9598 8.71778C42.9851 8.50327 43.0105 8.28876 43.0358 8.07425C43.0668 7.81207 43.1215 7.5527 43.1848 7.22184C43.2831 6.79844 43.4304 6.57417 43.6002 6.15922C43.7027 5.90549 43.7491 5.71763 43.9202 5.49616C44.1152 5.27752 44.2512 5.14859 44.5303 5.03654C44.8122 4.90065 45.0085 4.87549 45.1753 4.89519C45.366 4.91771 45.4767 5.00328 45.558 5.13371C45.7387 5.44505 45.7386 5.85587 45.6823 6.33255C45.6232 6.83308 45.5108 7.37564 45.4461 7.92383C45.432 8.04301 45.4207 8.13834 45.4067 8.25752Z" fill="white"/>
<path d="M61.6262 2.72925C61.5911 2.82177 61.5293 2.93532 61.4704 3.02503C61.0468 3.33751 60.6471 3.65282 60.2446 3.99196C59.9192 4.29187 59.5489 4.56232 59.1843 4.7851C58.9206 4.97147 58.713 5.09196 58.3625 5.19557C58.1633 5.24456 58.0498 5.18282 57.8409 5.10982C57.7007 5.0691 57.5844 5.03119 57.4498 4.94281C57.4049 4.91334 57.3601 4.88388 57.2942 4.82777C57.1414 4.6889 56.9592 4.59488 57.0084 4.38318C57.0772 4.00465 57.1054 3.7663 57.2822 3.49717C57.3705 3.36261 57.4828 3.23086 57.6721 3.05988C57.731 2.97018 57.7815 2.95197 57.8615 2.88891C58.1069 2.65206 58.222 2.49647 58.4674 2.25962C59.0117 1.74388 59.3637 1.42295 59.8967 1.00254C60.1519 0.887679 60.5025 0.784071 60.8867 0.805263C61.0058 0.819334 61.0745 0.851612 61.1671 0.886703C61.2329 0.942814 61.296 1.02276 61.359 1.10271C61.5608 1.4407 61.5719 1.75617 61.6306 2.07728C61.7007 2.30304 61.6487 2.53857 61.6262 2.72925ZM57.9534 7.63644C58.0905 8.52262 58.0905 8.52262 58.0032 9.26149L57.8006 10.9776C57.7402 11.2846 57.6826 11.5678 57.5745 11.8692C57.5071 12.0304 57.4874 12.1973 57.4705 12.3403C57.4565 12.4594 57.4424 12.5786 57.4311 12.674C57.3848 12.8618 57.3623 13.0525 57.2682 13.2347C57.2388 13.2796 57.2093 13.3244 57.2037 13.3721C57.1474 13.8488 56.9748 14.2876 56.8498 14.732C56.7894 15.039 56.6126 15.3081 56.576 15.618C56.5732 15.6418 56.5704 15.6657 56.5676 15.6895C56.3473 16.1226 56.333 16.6526 56.1127 17.0858C56.0705 17.4433 55.8853 17.7839 55.7744 18.1092C55.6396 18.4316 55.5736 18.7863 55.3673 19.1003C55.2367 19.5924 55.0108 20.0732 54.8325 20.5596C54.6543 21.0461 54.4732 21.5564 54.2234 22.0344C54.1463 22.0736 54.0635 22.1605 53.9836 22.2236C53.9331 22.2418 53.8826 22.26 53.8055 22.2992L53.4241 22.2542C53.1955 22.348 53.1212 22.3634 52.9782 22.3465C52.9305 22.3409 52.8352 22.3297 52.7189 22.2917C52.5422 22.1501 52.4218 21.9425 52.2072 21.9172C52.1834 21.9144 52.1596 21.9115 52.1357 21.9087C52.0181 21.6773 51.8976 21.4698 51.7981 21.2889C51.7673 21.1402 51.7575 21.0182 51.7744 20.8752C51.7941 20.7084 51.8377 20.5444 51.9022 20.407C52.0777 19.9444 52.2293 19.4789 52.4286 19.0191C52.5367 18.7177 52.6658 18.443 52.7711 18.1654C52.8763 17.8878 52.9578 17.6074 53.063 17.3299C53.1304 17.1687 53.1978 17.0075 53.2623 16.8701C53.2652 16.8462 53.268 16.8224 53.268 16.8224C53.2792 16.7271 53.2428 16.6261 53.1559 16.5433C52.9891 16.5236 52.8012 16.4773 52.6105 16.4548C52.4703 16.4141 52.3273 16.3972 52.211 16.3593C51.8886 16.2245 51.531 16.1823 51.1974 16.1429C50.9828 16.1176 50.7683 16.0923 50.5538 16.0669C50.3519 16.1398 50.2902 16.2533 50.2284 16.3668C50.0235 16.8743 49.7261 17.3467 49.6137 17.8893C49.3821 18.4178 49.3117 19.0136 48.9876 19.507C48.8683 19.9038 48.6803 20.2682 48.6324 20.6734C48.544 20.808 48.4823 20.9215 48.3967 21.0323C48.2817 21.1878 48.1274 21.2663 47.9606 21.2466C47.9367 21.2438 47.9129 21.241 47.8891 21.2381C47.8414 21.2325 47.7937 21.2269 47.725 21.1946C47.5456 21.0768 47.4195 20.9169 47.3046 20.6616C47.3187 20.5425 47.3356 20.3995 47.3497 20.2803C47.3947 19.8989 47.4636 19.5204 47.6039 19.1503C47.6124 19.0788 47.6446 19.0101 47.6797 18.9176C47.7486 18.5391 47.8175 18.1605 47.9788 17.8171C48.0787 17.1764 48.3397 16.603 48.6007 16.0297C48.633 15.961 48.6681 15.8685 48.7004 15.7998C48.6611 15.7226 48.6219 15.6455 48.556 15.5894C48.4481 15.48 48.3164 15.3678 48.1524 15.3242C47.8061 15.1867 47.5721 14.9174 47.3675 14.6032C47.3254 14.5499 47.2862 14.4728 47.247 14.3957C47.24 14.2498 47.2303 14.1278 47.2472 13.9848C47.264 13.8418 47.3076 13.6778 47.3988 13.5194C47.4844 13.4087 47.5251 13.2685 47.563 13.1521C47.5896 13.1311 47.6163 13.1101 47.6429 13.0891C47.7172 13.0737 47.7916 13.0583 47.8869 13.0695C48.1911 13.1538 48.5304 13.1455 48.8234 13.3251C49.1304 13.3855 49.4164 13.4193 49.6786 13.4503C49.8777 13.4013 49.9605 13.3144 50.025 13.177C50.2397 12.7915 50.4544 12.406 50.6691 12.0205C50.7631 11.8383 50.8838 11.6351 51.0016 11.4556C51.5179 10.7674 51.9893 10.0497 52.5714 9.41765C52.7931 9.17798 52.9698 8.90885 53.1704 8.64254C53.2827 8.51079 53.3921 8.40288 53.5043 8.27112C53.8886 7.8815 54.2968 7.4947 54.6994 7.15556C54.8593 7.02944 54.9743 6.87385 55.1132 6.72108C55.332 6.50525 55.569 6.3399 55.8719 6.23067C56.0977 6.16066 56.3291 6.04298 56.5576 5.94913C56.6291 5.95758 56.7273 5.945 56.7988 5.95344C56.8465 5.95907 56.8885 6.01237 56.9362 6.018C57.1436 6.30832 57.2795 6.5902 57.3887 6.89309C57.5779 7.13293 57.8203 7.33073 57.9534 7.63644ZM55.1536 10.4717C55.1916 10.3553 55.2028 10.26 55.2169 10.1408C55.231 10.0217 55.245 9.90249 55.2563 9.80715C55.2619 9.75949 55.2437 9.709 55.2255 9.65852C55.1806 9.62906 55.133 9.62343 55.0643 9.59115C54.9843 9.65421 54.8806 9.71446 54.8006 9.77752C54.5257 10.0592 54.2746 10.3437 53.9997 10.6255C53.8874 10.7572 53.7486 10.91 53.6125 11.0389C53.4526 11.165 53.3194 11.2701 53.1595 11.3962C52.9504 11.7341 52.6993 12.0186 52.5379 12.362C52.3737 12.7293 52.0778 12.9844 51.8926 13.325C51.8631 13.3699 51.8575 13.4175 51.8252 13.4862C51.8196 13.5339 51.8168 13.5577 51.8111 13.6054C51.7999 13.7007 51.8153 13.775 51.9022 13.8578C52.0872 13.928 52.2933 14.0248 52.4783 14.095L53.7416 14.2441C53.7892 14.2498 53.8397 14.2316 53.8902 14.2134C54.0655 14.1616 54.1539 14.027 54.2479 13.8448C54.3237 13.612 54.3575 13.326 54.4599 13.0723C54.5273 12.9111 54.5736 12.7232 54.5961 12.5326C54.6917 12.133 54.6946 11.6983 54.9065 11.3367C54.9669 11.0297 55.0245 10.7465 55.1536 10.4717Z" fill="white"/>
<path d="M65.8469 21.1351C65.8959 21.3343 65.9926 21.539 66.0626 21.7648C66.0303 21.8335 66.0219 21.905 65.9657 21.9708C65.7708 22.1895 65.5519 22.4053 65.3541 22.6478C65.2222 22.9464 64.9642 23.0851 64.6641 23.1705C64.3135 23.2741 63.9658 23.3539 63.5886 23.4785C63.4694 23.4644 63.3025 23.4447 63.1301 23.4727C62.7318 23.5707 62.3028 23.52 61.8976 23.4722L61.4686 23.4215C61.1252 23.2601 60.7369 23.0693 60.3724 22.8813C60.2001 22.4984 59.7964 22.2332 59.6326 21.7789C59.6228 21.6569 59.613 21.5349 59.6271 21.4158C59.6412 21.2966 59.6791 21.1802 59.6931 21.0611C59.7157 20.8704 59.7382 20.6797 59.8322 20.4975C59.8939 20.3839 59.9108 20.2409 59.9249 20.1217L60.0712 18.8824C60.2542 17.3331 60.4581 15.8105 60.6382 14.2851C60.6748 13.9753 60.7086 13.6893 60.8643 13.3935C60.8994 13.301 60.9107 13.2056 60.9219 13.1103C60.9332 13.0149 60.9444 12.9196 60.9557 12.8243C61.054 12.4009 61.057 11.9662 61.2507 11.5541C61.3208 11.369 61.3195 11.1756 61.3659 10.9877C61.4109 10.6063 61.4826 10.204 61.5276 9.82263C61.7325 9.31515 61.7734 8.76415 61.862 8.21877C61.9027 8.07858 61.9196 7.93557 61.9813 7.82203C62.0782 7.61596 62.1035 7.40145 62.1526 7.18975C62.2228 7.00471 62.3407 6.82529 62.3632 6.63461C62.366 6.61078 62.3688 6.58694 62.3716 6.56311C62.3829 6.46777 62.4208 6.35141 62.4797 6.2617C62.5443 6.12433 62.6298 6.0136 62.6593 5.96874C62.8515 5.77393 63.0478 5.74877 63.2231 5.69697C63.4558 5.77278 63.6885 5.84859 63.8974 5.92159C64.053 6.03663 64.1581 6.16987 64.186 6.34234C64.2476 6.63961 64.2853 6.93407 64.3736 7.21032C64.4015 7.38279 64.4323 7.53142 64.4154 7.67443C64.4013 7.7936 64.3634 7.90996 64.3017 8.0235C64.2343 8.18471 64.1698 8.32209 64.1501 8.48893C64.1009 8.70063 64.0756 8.91514 63.9549 9.11839C63.8932 9.23194 63.8973 9.40159 63.8594 9.51795L63.6849 10.9957C63.6301 11.255 63.602 11.4934 63.5024 11.7233C63.4406 11.8368 63.4237 11.9798 63.4068 12.1229C63.338 12.5014 63.293 12.8827 63.2479 13.2641C63.1847 13.595 63.1691 13.9315 63.0134 14.2272C62.9811 14.2959 62.9727 14.3674 62.9614 14.4628C62.9501 14.5581 62.9417 14.6296 62.9304 14.7249C62.7715 15.8662 62.6154 16.9836 62.4803 18.1276C62.4212 18.6282 62.3593 19.1525 62.3241 19.6559C62.3128 19.7512 62.3016 19.8465 62.2903 19.9419C62.2678 20.1325 62.2453 20.3232 62.2256 20.4901C62.2746 20.6892 62.332 20.8168 62.4694 20.8813C62.517 20.887 62.5647 20.8926 62.5885 20.8954C62.7077 20.9095 62.8535 20.9025 62.9545 20.8661C63.4299 20.7289 63.9234 20.6422 64.3568 20.4517C64.5026 20.4447 64.6246 20.435 64.7438 20.4491C65.1013 20.4913 65.4209 20.6498 65.7138 20.8294C65.7741 20.9332 65.8133 21.0103 65.8469 21.1351Z" fill="white"/>
<path d="M87.1945 11.3307C87.2127 11.3812 87.2099 11.405 87.2043 11.4527C87.1846 11.6195 87.0275 11.7218 86.8914 11.8507C86.6488 12.0638 86.5127 12.1927 86.1945 12.2276C86.0963 12.2402 86.0248 12.2317 85.9533 12.2233C85.6911 12.1923 85.4879 12.0717 85.1808 12.0113C85.0617 11.9972 84.993 11.9649 84.8738 11.9508C84.5191 11.8848 84.3256 11.8861 83.9709 11.8201C83.783 11.7737 83.64 11.7568 83.4788 11.6895C83.3176 11.6221 83.1297 11.5757 82.9629 11.5561C82.8199 11.5392 82.6502 11.5433 82.5072 11.5264C82.4119 11.5152 82.3081 11.5754 82.2254 11.6623C82.0542 11.8838 81.9517 12.1375 81.8941 12.4207C81.8604 12.7067 81.7074 12.9787 81.6708 13.2885C81.668 13.3123 81.6652 13.3362 81.6624 13.36C81.654 13.4315 81.6455 13.503 81.6399 13.5507C81.6061 13.8367 81.5513 14.0961 81.5204 14.3582C81.4528 14.9303 81.3615 15.4995 81.2939 16.0715C81.2742 16.2383 81.2784 16.408 81.2587 16.5748C81.3484 16.6338 81.4142 16.6899 81.4857 16.6983C81.6049 16.7124 81.6974 16.7475 81.8166 16.7615C82.0311 16.7869 82.2484 16.7884 82.4714 16.7422C82.5962 16.7086 82.7392 16.7255 82.885 16.7185C82.9804 16.7298 83.0995 16.7439 83.1977 16.7313C83.495 16.6697 83.7599 16.6768 84.046 16.7106C84.1651 16.7247 84.2843 16.7387 84.4035 16.7528C84.5465 16.7697 84.6095 16.8497 84.7203 16.9352C84.8548 17.0236 84.974 17.0377 85.0791 17.1709C85.2473 17.3841 85.4239 17.5258 85.4168 17.7908C85.4139 17.8146 85.4111 17.8385 85.4083 17.8623C85.3802 18.1006 85.2413 18.2534 85.0309 18.3977C84.714 18.6261 84.4013 18.6134 84.0984 18.7226C84.0213 18.7619 83.9203 18.7983 83.8488 18.7898C83.4436 18.742 83.0369 18.9115 82.6079 18.8608L82.5364 18.8524C82.2924 18.8719 82.0485 18.8914 81.8073 18.8871C81.5633 18.9066 81.3488 18.8813 81.182 18.8616C81.0305 18.9162 80.9688 19.0298 80.9575 19.1251C80.9378 19.292 80.9181 19.4588 80.8984 19.6256C80.89 19.6971 80.8787 19.7925 80.8703 19.864C80.8393 20.1262 80.957 20.3576 80.9261 20.6197C80.9049 21.0039 81.0379 21.3096 81.1569 21.7345C81.1933 21.8355 81.2326 21.9126 81.3223 21.9715C81.5704 22.1217 81.7021 22.2339 81.9853 22.2915C82.0779 22.3266 82.1732 22.3378 82.2685 22.3491C82.5307 22.38 82.7509 22.3577 83.0369 22.3915C83.0607 22.3943 83.0845 22.3971 83.1084 22.3999C83.4182 22.4365 83.5584 22.4772 83.8654 22.5376C84.0982 22.6135 84.1963 22.6009 84.3996 22.7215C84.5552 22.8366 84.6743 22.8506 84.8299 22.9657C85.0275 23.134 85.1859 23.2252 85.2559 23.451C85.2741 23.5015 85.2713 23.5253 85.2685 23.5491C85.2545 23.6683 85.1717 23.7552 85.1338 23.8716C85.0931 24.0118 85.1267 24.1366 84.9962 24.2178C84.7859 24.3622 84.5952 24.3396 84.3456 24.4068C84.1198 24.4768 83.9838 24.6058 83.7426 24.6015C83.2603 24.5929 82.8761 24.5717 82.4709 24.5238C82.2088 24.4929 81.9466 24.4619 81.6634 24.4043C81.3087 24.3383 81.0283 24.2568 80.6372 24.0898C80.3148 23.9551 80.0877 23.8316 79.8424 23.6576C79.4625 23.3953 79.1598 23.0937 78.9931 22.6632C78.9567 22.5622 78.8698 22.4795 78.8334 22.3785C78.7816 22.2032 78.7326 22.0041 78.7046 21.8316C78.6487 21.4867 78.5815 21.2371 78.555 20.8473C78.5229 20.5052 78.5244 20.2878 78.5161 19.9485C78.519 19.9247 78.519 19.9247 78.5218 19.9009C78.5246 19.877 78.5274 19.8532 78.533 19.8055L78.5358 19.7817C78.5557 19.204 78.5474 18.8647 78.5911 18.2899C78.618 17.858 78.6574 17.5244 78.6996 17.1668C78.708 17.0953 78.7136 17.0477 78.7221 16.9762C78.7587 16.6663 78.7924 16.3803 78.9454 16.1084C79.0071 15.9948 79.003 15.8252 79.0409 15.7088C79.0775 15.399 79.1141 15.0891 79.1717 14.8059C79.1801 14.7344 79.1914 14.6391 79.1998 14.5676C79.2026 14.5437 79.2083 14.4961 79.2111 14.4722C79.4398 13.9676 79.4541 13.4376 79.537 12.9399L79.5848 12.5347C79.6256 12.3945 79.6663 12.2543 79.7042 12.138C79.7659 12.0244 79.7772 11.9291 79.8151 11.8127L79.8601 11.4314C79.6092 11.3051 79.4718 11.2405 79.2209 11.1142C78.97 10.9879 78.8003 10.9921 78.6055 10.7999C78.3897 10.5811 78.2159 10.4156 78.2497 10.1295C78.2525 10.1057 78.2525 10.1057 78.2525 10.1057C78.2806 9.86736 78.5484 9.85065 78.7588 9.70632C78.9692 9.562 79.0576 9.42743 79.3072 9.36024C79.5329 9.29023 79.7236 9.31274 79.9143 9.33525C79.962 9.34088 80.0096 9.34651 80.0573 9.35214C80.3195 9.3831 80.5214 9.31027 80.813 9.29637C81.1047 9.28247 81.2589 9.20402 81.545 9.23779C81.545 9.23779 81.545 9.23779 81.5688 9.24061C81.7595 9.26312 81.8674 9.37253 82.0791 9.42169C82.2669 9.46804 82.3861 9.48211 82.5768 9.50462C82.6483 9.51307 82.7198 9.52151 82.7913 9.52995C82.982 9.55246 83.125 9.56935 83.3157 9.59186C83.3872 9.60031 83.4587 9.60875 83.554 9.62C83.6732 9.63408 83.7685 9.64533 83.8849 9.68324C84.1652 9.76468 84.3265 9.83205 84.6097 9.88965C84.8929 9.94726 85.0625 9.94312 85.3429 10.0246C85.5546 10.0737 85.6653 10.1593 85.877 10.2085C85.9247 10.2141 85.9724 10.2197 85.9962 10.2225C86.0439 10.2282 86.0915 10.2338 86.1392 10.2394C86.2107 10.2479 86.2794 10.2801 86.3481 10.3124C86.5752 10.4359 86.6536 10.5902 86.8246 10.7795C86.9956 10.9689 87.0712 11.147 87.1945 11.3307Z" fill="white"/>
<path d="M96.5449 17.1472C96.6625 17.3786 96.6933 17.5272 96.6862 17.7922C96.6834 17.8161 96.6806 17.8399 96.6806 17.8399C96.6609 18.0068 96.5781 18.0936 96.5346 18.2577C96.5318 18.2815 96.5318 18.2815 96.5318 18.2815C96.529 18.3053 96.5261 18.3292 96.5261 18.3292C96.5233 18.353 96.5233 18.353 96.5233 18.353C96.3773 18.7708 96.2931 19.075 96.1317 19.4184C95.9703 19.7619 95.8089 20.1053 95.6686 20.4754C95.531 20.8217 95.3542 21.0908 95.1634 21.4791C95.0637 21.709 94.9782 21.8197 94.9024 22.0525C94.7031 22.5123 94.6244 22.7688 94.4462 23.2553C94.303 23.6492 94.23 23.8581 94.0868 24.252C94.0784 24.3235 94.0517 24.3445 94.0194 24.4132C93.6897 24.9543 93.5647 25.3987 93.1776 25.8122C93.1215 25.878 93.0892 25.9467 93.0093 26.0098C93.0064 26.0336 92.9826 26.0308 92.935 26.0252C92.935 26.0252 92.935 26.0252 92.9111 26.0224C92.5831 25.9353 92.2845 25.8034 92.0461 25.7752C91.8555 25.7527 91.7209 25.6643 91.5835 25.5998C91.3564 25.4763 91.1321 25.329 91.0706 25.0317C91.0608 24.9097 91.0482 24.8116 91.0567 24.7401C91.0848 24.5017 91.2027 24.3223 91.2603 24.0391C91.3768 23.6662 91.4975 23.4629 91.6407 23.069C91.6757 22.9765 91.6842 22.905 91.7193 22.8125C92.1066 21.9882 92.3297 21.5312 92.7409 20.7097C92.9023 20.3663 93.0524 20.1182 93.1815 19.8434C93.3134 19.5448 93.2868 19.5659 93.4159 19.2911C93.4482 19.2224 93.4776 19.1776 93.4833 19.1299C93.4917 19.0584 93.4763 18.9841 93.4819 18.9364C93.4665 18.8621 93.4301 18.7611 93.3909 18.684C93.0629 18.5969 92.774 18.587 92.4432 18.5238C92.3478 18.5125 92.2763 18.5041 92.181 18.4928C91.9903 18.4703 91.8235 18.4506 91.6651 18.3594C91.6202 18.3299 91.5754 18.3005 91.5039 18.292C91.316 18.2457 91.1253 18.2232 90.9136 18.174C90.8421 18.1655 90.8001 18.1123 90.7524 18.1066C90.3192 17.8863 89.9058 17.4992 89.5288 17.213C89.2596 17.0362 89.1602 16.8553 89.0243 16.5734C88.9094 16.3182 88.8814 16.1457 88.8886 15.8807C88.8914 15.8569 88.8914 15.8569 88.8942 15.833C88.9195 15.6185 89.0345 15.463 89.0571 15.2723C89.1062 15.0606 89.1287 14.8699 89.2256 14.6638C89.307 14.3835 89.4151 14.082 89.547 13.7835C89.7407 13.3713 89.982 12.9648 90.2023 12.5317C90.2641 12.4181 90.3525 12.2836 90.438 12.1728C90.6625 11.9093 90.9108 11.6486 91.1352 11.3851C91.5869 10.8343 92.3988 10.7127 93.093 10.3596C93.1701 10.3204 93.2682 10.3078 93.3397 10.3163C93.4112 10.3247 93.4561 10.3542 93.5276 10.3626C93.6888 10.43 93.7729 10.5366 93.878 10.6698C93.9411 10.7498 93.9593 10.8003 93.9452 10.9194C93.9424 10.9433 93.9368 10.9909 93.9339 11.0148C93.9171 11.1578 93.882 11.2503 93.8384 11.4143C93.7654 11.6232 93.7275 11.7396 93.6097 11.919C93.3529 12.2512 93.1426 12.3955 92.9153 12.6828C92.7091 12.9968 92.458 13.2813 92.3443 13.6304C92.2362 13.9318 92.086 14.1799 91.9598 14.4308C91.8601 14.6607 91.7633 14.8668 91.6903 15.0757C91.6229 15.2369 91.5107 15.3687 91.491 15.5355C91.4854 15.5832 91.4797 15.6308 91.4979 15.6813C91.5259 15.8538 91.7138 15.9001 91.8722 15.9913C91.9409 16.0236 92.0362 16.0349 92.1315 16.0461C92.5129 16.0912 92.813 16.0057 93.2532 15.9611C93.6487 15.8869 94.0595 15.8871 94.4408 15.9321C94.8699 15.9828 95.3143 16.1077 95.7446 16.3519C96.0852 16.5371 96.3936 16.791 96.5449 17.1472Z" fill="white"/>
<path d="M11.6751 32.4128C11.6905 32.4872 11.7087 32.5376 11.6946 32.6568C11.6805 32.776 11.658 32.9667 11.5976 33.2737C11.491 33.3578 11.3578 33.4629 11.2512 33.547C11.174 33.5862 11.1236 33.6044 11.0759 33.5988C10.8558 33.6211 10.6469 33.5481 10.4211 33.6181C10.2192 33.6909 9.97801 33.6866 9.75787 33.709C9.63307 33.7426 9.48725 33.7495 9.36808 33.7355C9.0526 33.7465 8.80863 33.7661 8.44549 33.7715C8.08234 33.777 7.844 33.7488 7.53134 33.7361C7.4542 33.7753 7.35042 33.8356 7.27329 33.8748C7.21155 33.9883 7.17083 34.1285 7.15676 34.2477C7.13988 34.3907 7.14964 34.5127 7.13557 34.6319C7.07234 34.9627 7.05677 35.2992 6.90101 35.595C6.86874 35.6637 6.83646 35.7324 6.82802 35.8039C6.81958 35.8754 6.83497 35.9497 6.82371 36.045C6.8209 36.0689 6.8209 36.0689 6.81808 36.0927C6.69012 36.9718 6.62821 37.4961 6.50025 38.3752C6.43139 38.7537 6.38223 38.9654 6.31336 39.344C6.26983 39.508 6.23474 39.6005 6.21504 39.7673C6.05762 40.6913 6.01954 41.2184 5.88595 42.1452C5.80583 42.619 5.72721 42.8756 5.64709 43.3495C5.59793 43.5612 5.58104 43.7042 5.55571 43.9187C5.39961 45.0361 5.32363 45.6796 5.16753 46.797C5.11836 47.0087 5.07765 47.1489 5.02848 47.3606C4.97932 47.5723 4.9386 47.7125 4.91327 47.927C4.91046 47.9508 4.881 47.9957 4.87818 48.0195C4.85848 48.1864 4.86825 48.3083 4.85136 48.4514C4.8401 48.5467 4.82603 48.6659 4.76429 48.7794C4.61416 49.0275 4.17107 49.096 3.74205 49.0454C3.26537 48.9891 2.80275 48.8136 2.65279 48.6509C2.54488 48.5415 2.44954 48.5303 2.38929 48.4265C2.18753 48.0885 2.08806 47.9076 2.03775 47.515C2.01673 47.4883 2.01954 47.4645 2.02236 47.4407C2.04206 47.2738 2.10098 47.1841 2.14452 47.0201C2.42973 45.6279 2.68266 44.3044 2.83463 43.0174C2.89935 42.4692 3.03708 41.7121 3.10462 41.1401C3.27065 39.7339 3.48832 38.9137 3.68945 37.415C3.70915 37.2481 3.74143 37.1794 3.76113 37.0126C3.85382 36.6369 3.91011 36.1602 3.97897 35.7817C4.00711 35.5433 4.03244 35.3288 4.05495 35.1381C4.10279 34.7329 4.14501 34.3754 4.19285 33.9702C4.17464 33.9198 4.15644 33.8693 4.1144 33.816C4.05134 33.736 3.98827 33.6561 3.91677 33.6476C3.89294 33.6448 3.86629 33.6658 3.84245 33.663C3.66717 33.7148 3.47368 33.7162 3.283 33.6936C2.94651 33.6781 2.61283 33.6387 2.29172 33.6974C2.11925 33.7254 1.9496 33.7295 1.78276 33.7098C1.63975 33.6929 1.49956 33.6522 1.38038 33.6382C1.33553 33.6087 1.29068 33.5792 1.24864 33.5259C1.12814 33.3184 1.00765 33.1108 0.810025 32.9425C0.720315 32.8836 0.660069 32.7798 0.597008 32.6998C0.557782 32.6227 0.54239 32.5484 0.529812 32.4502C0.532626 32.4264 0.511606 32.3997 0.51442 32.3759C0.548191 32.0899 0.722153 31.8446 0.980197 31.7059C1.13727 31.6036 1.28591 31.5728 1.50886 31.5267C1.90428 31.4525 2.14544 31.4568 2.58291 31.436C3.09187 31.4236 3.3807 31.4335 3.88685 31.4449C3.98219 31.4562 4.02986 31.4618 4.15184 31.4521C4.58649 31.455 4.83046 31.4355 5.28895 31.4413C5.33662 31.4469 5.3871 31.4287 5.4586 31.4372C5.91708 31.443 6.20591 31.4529 6.69104 31.4377C7.00652 31.4266 7.17899 31.3986 7.5183 31.3904C7.83378 31.3793 8.01882 31.4495 8.35813 31.4412C8.69744 31.4329 8.89375 31.4078 9.25689 31.4023C9.30456 31.408 9.35504 31.3897 9.42655 31.3982C9.83736 31.3984 10.1795 31.3663 10.5132 31.4057C10.5847 31.4141 10.6562 31.4225 10.7277 31.431C10.952 31.5783 11.0458 31.8069 11.1845 32.0649C11.3401 32.18 11.4957 32.295 11.6751 32.4128Z" fill="white"/>
<path d="M22.3006 37.7516C22.2977 37.7754 22.2977 37.7754 22.2949 37.7993C22.2752 37.9661 22.2401 38.0586 22.1966 38.2227C22.0842 38.7652 22.0266 39.0484 21.9142 39.591C21.8945 39.7578 21.8622 39.8265 21.8425 39.9934C21.7512 40.5626 21.7356 40.8991 21.6442 41.4683C21.6076 41.7781 21.5851 41.9688 21.5009 42.273C21.4166 42.5772 21.3226 42.7595 21.2145 43.0609C21.1036 43.3861 21.0096 43.5683 20.8987 43.8936C20.7555 44.2875 20.7035 44.523 20.5842 44.9198C20.4677 45.2927 20.4185 45.5044 20.2809 45.8507C20.0115 46.4955 19.5947 47.3646 19.5063 47.4992C19.1023 48.0557 18.6982 48.6121 18.2283 49.1125C18.039 49.2834 17.8734 49.4572 17.6546 49.6731C17.5536 49.7095 17.3994 49.7879 17.2718 49.8454C17.1498 49.8551 17.0516 49.8677 16.9325 49.8536C16.7895 49.8367 16.6493 49.796 16.5063 49.7791C16.4614 49.7497 16.4137 49.7441 16.3689 49.7146C16.2764 49.6795 16.2105 49.6234 16.1418 49.5911C15.7143 49.3231 15.34 49.0131 15.0247 48.6134C14.9224 48.4563 14.7963 48.2964 14.6674 48.1604C14.3044 47.755 14.1588 47.3511 13.9108 46.7902C13.7175 46.3807 13.6503 46.1311 13.5341 45.6824C13.4726 45.3851 13.4712 45.1916 13.4602 44.8761C13.4239 44.3644 13.41 44.0727 13.3976 43.5638C13.3852 43.0548 13.4218 42.7449 13.4332 42.2388C13.4291 42.0691 13.4375 41.9976 13.4572 41.8308C13.4841 41.399 13.5332 41.1873 13.56 40.7554C13.5741 40.6363 13.5854 40.5409 13.5756 40.4189C13.5758 40.0081 13.5086 39.7585 13.5564 39.3533C13.6155 38.8528 13.6423 38.421 13.6902 38.0158C13.783 37.2292 13.8885 36.5409 14.0277 35.5665C14.0474 35.3996 14.1035 35.3338 14.1471 35.1697C14.185 35.0534 14.1934 34.9819 14.2313 34.8655C14.3422 34.5403 14.4124 34.3552 14.5023 34.0033C14.5486 33.8155 14.536 33.7173 14.6062 33.5323C14.7002 33.35 14.741 33.2098 14.9009 33.0837C15.0607 32.9576 15.1912 32.8763 15.3875 32.8512C15.5333 32.8442 15.6315 32.8317 15.7506 32.8457C15.846 32.857 15.9413 32.8682 16.0548 32.93C16.1922 32.9945 16.2258 33.1193 16.2328 33.2652C16.2607 33.4376 16.2439 33.5806 16.227 33.7236C16.2157 33.819 16.2073 33.8905 16.196 33.9858C16.1876 34.0573 16.1791 34.1288 16.1679 34.2242C16.1354 34.7037 16.1732 34.9981 16.1169 35.4748C16.0831 35.7608 15.9681 35.9164 15.9343 36.2024C15.8893 36.5838 15.8317 36.867 15.7951 37.1768C15.7416 37.6297 15.7148 38.0615 15.6444 38.6574C15.636 38.7289 15.657 38.7555 15.6486 38.827C15.64 39.3093 15.6567 39.5771 15.648 40.0595C15.6578 40.1814 15.6466 40.2768 15.6563 40.3988C15.6646 40.7381 15.6631 40.9554 15.6475 41.2919C15.6404 41.5569 15.5997 41.6971 15.5926 41.9621C15.5714 42.3462 15.5937 42.5664 15.5725 42.9505C15.5513 43.3347 15.526 43.5492 15.5286 43.9362C15.5467 44.3975 15.5662 44.6415 15.6586 45.0874C15.8894 46.2021 16.209 46.3607 16.5399 46.4239C16.5399 46.4239 16.5637 46.4268 16.5876 46.4296C17.0404 46.483 17.5819 45.9911 18.1936 44.9034C18.3494 44.6076 18.3719 44.4169 18.48 44.1155C18.5558 43.8828 18.5965 43.7426 18.6751 43.486C18.7538 43.2295 18.7678 43.1103 18.8465 42.8538C18.8815 42.7613 18.8872 42.7136 18.9223 42.6211C18.9953 42.4122 19.0121 42.2692 19.0851 42.0603C19.1666 41.7799 19.2073 41.6397 19.2887 41.3593C19.3351 41.1715 19.373 41.0551 19.3955 40.8644C19.4756 40.3906 19.4828 40.1256 19.5629 39.6517C19.612 39.44 19.6528 39.2998 19.7019 39.0881C19.7454 38.9241 19.7777 38.8554 19.7974 38.6885C19.8171 38.5217 19.8368 38.3549 19.8537 38.2119C19.879 37.9974 19.9044 37.7828 19.9297 37.5683C19.9606 37.3062 20.0154 37.0468 20.0787 36.7159C20.177 36.2925 20.3243 36.0683 20.4941 35.6533C20.5966 35.3996 20.6429 35.2117 20.8141 34.9902C21.0091 34.7716 21.1451 34.6427 21.4242 34.5306C21.7061 34.3947 21.9024 34.3696 22.0692 34.3893C22.2599 34.4118 22.3706 34.4974 22.4519 34.6278C22.6326 34.9391 22.6325 35.3499 22.5762 35.8266C22.5171 36.3272 22.4047 36.8697 22.34 37.4179C22.3259 37.5371 22.3146 37.6324 22.3006 37.7516Z" fill="white"/>
<path d="M45.7648 40.5946C45.7745 40.7166 45.7633 40.8119 45.7492 40.9311C45.7379 41.0264 45.7267 41.1218 45.6888 41.2381C45.655 41.5241 45.5876 41.6853 45.53 41.9685C45.2741 43.7267 45.2036 44.7333 44.9238 46.4886C44.8872 46.7985 44.7722 46.9541 44.7118 47.2611C44.709 47.2849 44.709 47.2849 44.7062 47.3088C44.6724 47.5948 44.7242 47.7701 44.6876 48.0799C44.6623 48.2944 44.5977 48.4318 44.5486 48.6435C44.5289 48.8103 44.512 48.9533 44.4951 49.0964C44.4838 49.1917 44.4726 49.287 44.4613 49.3824C44.4444 49.5254 44.4247 49.6922 44.3784 49.8801C44.3446 50.1661 44.2801 50.3035 44.1986 50.5839C44.1846 50.703 44.1495 50.7955 44.1116 50.9119C44.0048 51.4068 43.9472 51.69 43.7927 52.1793C43.7001 52.555 43.6719 52.7933 43.4629 53.1312C43.3983 53.2685 43.2763 53.2783 43.1067 53.2824C42.9875 53.2684 42.9511 53.1674 42.8557 53.1561C42.8557 53.1561 42.8319 53.1533 42.8081 53.1505C42.6356 53.1785 42.5949 53.3187 42.4042 53.2962L42.3804 53.2933C42.142 53.2652 42.1056 53.1642 41.8757 53.0646C41.807 53.0323 41.7355 53.0239 41.664 53.0154C41.5925 53.007 41.5448 53.0014 41.4972 52.9957C41.4257 52.9873 41.378 52.9817 41.2855 52.9466C41.2168 52.9143 41.1986 52.8638 41.1565 52.8105C41.0178 52.5525 40.8651 52.4136 40.8273 52.1191C40.8358 52.0476 40.8442 51.9761 40.8527 51.9046C40.8808 51.6663 40.9748 51.484 41.0324 51.2008C41.076 51.0368 41.1082 50.9681 41.1279 50.8013C41.1658 50.6849 41.1771 50.5896 41.1912 50.4704C41.3218 49.9783 41.3794 49.6951 41.4861 49.2002C41.5704 48.896 41.6406 48.711 41.701 48.4039C41.7445 48.2399 41.7558 48.1446 41.7755 47.9777C41.8641 47.4324 41.874 47.1435 41.9626 46.5982C42.023 46.2911 42.0932 46.1061 42.1536 45.799C42.1887 45.7065 42.1943 45.6589 42.2056 45.5635C42.4136 44.2106 42.5262 43.2572 42.6851 42.116C42.6992 41.9968 42.6866 41.8986 42.6025 41.792C42.552 41.8103 42.5044 41.8046 42.4301 41.82C41.9615 42.5139 41.3345 43.1165 40.8182 43.8047C40.4226 44.2897 40.0649 44.6583 39.6076 45.2568C39.4897 45.4362 39.4939 45.6058 39.3284 45.7796C39.2161 45.9114 39.1124 45.9716 38.9371 46.0234C38.637 46.1088 38.4463 46.0863 38.1308 46.0974C38.107 46.0946 38.0565 46.1128 38.0089 46.1072C37.985 46.1044 37.9612 46.1015 37.9402 46.0749C37.7846 45.9599 37.751 45.8351 37.5954 45.72C37.4636 45.6078 37.315 45.6386 37.2127 45.4815C36.9507 45.0397 36.892 44.7186 36.6833 44.2348C36.6315 44.0595 36.6189 43.9614 36.5194 43.7805C36.4802 43.7033 36.4942 43.5842 36.3989 43.5729C36.3989 43.5729 36.3989 43.5729 36.3751 43.5701C36.2531 43.5799 36.1913 43.6934 36.1534 43.8098C36.1127 43.9499 36.0986 44.0691 36.0818 44.2121C36.0086 44.8318 35.92 45.3772 35.8441 46.0207C35.8131 46.2829 35.7821 46.5451 35.7456 46.8549C35.7356 47.1438 35.7664 47.2924 35.7565 47.5812C35.7719 47.6555 35.769 47.6794 35.7606 47.7509C35.7253 48.2542 35.7546 48.6202 35.7096 49.0015C35.6871 49.1922 35.6379 49.4039 35.5649 49.6128C35.4863 49.8693 35.2787 49.9898 34.9843 50.0276C34.8595 50.0612 34.7165 50.0443 34.6211 50.033C34.216 49.9852 33.9553 49.7369 33.3791 49.4997C33.3104 49.4674 33.2656 49.438 33.2025 49.358C33.0764 49.1981 32.9446 49.0859 32.8718 48.884C32.8564 48.8096 32.862 48.762 32.8677 48.7143C32.8761 48.6428 32.8846 48.5713 32.8958 48.476L32.8986 48.4521C32.9452 47.8535 33.0112 47.4988 33.0339 46.8973C33.0648 46.6351 33.0312 46.5103 33.0384 46.2453C33.0496 46.15 33.0581 46.0785 33.0693 45.9831C33.0778 45.9116 33.0862 45.8401 33.0975 45.7448C33.1466 45.5331 33.2112 45.3957 33.2365 45.1812C33.4277 43.9713 33.4855 43.2772 33.6528 42.0645C33.7217 41.686 33.7947 41.4771 33.8636 41.0985C33.9183 40.8392 33.9563 40.7228 33.9872 40.4606C34.1137 39.7989 34.1377 39.3909 34.2403 38.7264C34.3035 38.3955 34.3527 38.1838 34.4159 37.8529C34.4623 37.6651 34.5002 37.5487 34.5227 37.358C34.5606 37.2417 34.5747 37.1225 34.5859 37.0272C34.6253 36.6935 34.6353 36.4047 34.6719 36.0948C34.6972 35.8803 34.7253 35.642 34.7829 35.3588C34.8265 35.1947 34.9092 35.1078 35.0215 34.9761C35.2108 34.8051 35.2964 34.6944 35.5221 34.6244C35.6231 34.588 35.6946 34.5964 35.7661 34.6048C35.8376 34.6133 35.9091 34.6217 35.9778 34.654C36.2582 34.7354 36.4727 34.7608 36.6381 34.9978C36.9688 35.4718 36.9504 35.8322 37.1773 36.3665C37.3524 36.7255 37.4995 36.912 37.627 37.2654C37.7572 37.5949 37.8062 37.7941 37.8888 38.118C38.0442 38.6438 38.1296 38.9439 38.2346 39.488C38.3633 40.0348 38.4011 40.3293 38.4822 40.8705C38.534 41.0458 38.5437 41.1678 38.5717 41.3403C38.6389 41.5899 38.664 41.7862 38.713 41.9853C38.7551 42.0386 38.8448 42.0975 38.8896 42.127C39.0411 42.0724 39.1477 41.9883 39.2333 41.8776C39.7705 41.216 40.3527 40.5839 40.7792 39.8368C41.0767 39.3644 41.3951 38.9186 41.6898 38.4701C42.0433 37.9318 42.4627 37.4497 42.8793 36.9914C43.0771 36.7489 43.296 36.5331 43.5148 36.3172C43.7728 36.1786 44.0252 36.0875 44.2636 36.1157C44.4304 36.1354 44.5916 36.2027 44.7472 36.3178C44.9028 36.4328 45.0935 36.4553 45.2813 36.5017C45.4341 36.6405 45.5126 36.7948 45.5616 36.9939C45.7352 37.5703 45.8416 37.897 45.8904 38.5069C45.9156 38.7032 45.9169 38.8967 45.9 39.0397C45.8803 39.2066 45.8368 39.3706 45.8171 39.5374C45.8086 39.6089 45.8002 39.6804 45.7889 39.7758C45.7762 40.0884 45.8013 40.2847 45.7648 40.5946Z" fill="white"/>
<path d="M56.4863 43.9872C56.4792 44.2522 56.468 44.3475 56.437 44.6097C56.4314 44.6574 56.4257 44.705 56.4201 44.7527C56.406 44.8719 56.392 44.991 56.3513 45.1312C56.3456 45.1789 56.3162 45.2238 56.3105 45.2714C56.2993 45.3668 56.3119 45.4649 56.3006 45.5603C56.2978 45.5841 56.2978 45.5841 56.295 45.6079C56.2177 46.058 56.1867 46.3201 56.1094 46.7702C55.9717 47.5273 55.8734 47.9506 55.7356 48.7077C55.7244 48.8031 55.6949 48.8479 55.6837 48.9433C55.5671 49.3162 55.518 49.5279 55.4014 49.9008C55.2442 50.4139 55.181 50.7447 54.955 51.2256C54.767 51.59 54.6379 51.8648 54.3447 52.096C54.1877 52.1983 54.0516 52.3272 53.9366 52.4828C53.8805 52.5487 53.8243 52.6146 53.7472 52.6538C53.5691 52.7294 53.4331 52.8584 53.2942 53.0111C53.1553 53.1639 52.9772 53.2395 52.7458 53.3572C52.3335 53.5744 52.3012 53.6431 51.8525 53.7592C51.7516 53.7957 51.5342 53.7942 51.2959 53.766C51.2244 53.7576 51.1529 53.7491 51.1052 53.7435C50.7743 53.6803 50.5837 53.6578 50.2641 53.4992C49.8071 53.2761 49.3809 53.2016 49.1399 52.7865C49.0978 52.7332 48.8189 52.4344 48.8246 52.3867C48.8135 52.0712 48.7463 51.8216 48.7142 51.4795C48.6793 51.1612 48.6751 50.9916 48.6402 50.6733C48.6053 50.355 48.6278 50.1643 48.5929 49.846C48.5762 49.5782 48.5426 49.4534 48.5259 49.1856C48.5092 48.9178 48.5499 48.7776 48.557 48.5126C48.6163 47.6013 48.6333 47.0475 48.7346 46.1894C48.7431 46.1179 48.7515 46.0464 48.76 45.9749C48.8556 45.1645 48.9806 44.7201 49.145 43.942C49.1885 43.778 49.2208 43.7093 49.2643 43.5453C49.3022 43.4289 49.3107 43.3574 49.3486 43.2411C49.5353 42.6831 49.6434 42.3817 49.8301 41.8238C49.9354 41.5462 49.9999 41.4088 50.1052 41.1312C50.2048 40.9013 50.2484 40.7373 50.3452 40.5312C50.7676 39.6144 51.3344 38.908 51.8337 38.3628C51.9137 38.2998 51.9965 38.2129 52.0764 38.1498C52.1592 38.0629 52.2181 37.9732 52.298 37.9101C53.1283 37.4282 52.9909 37.3636 53.497 37.375C53.5209 37.3779 53.5447 37.3807 53.5686 37.3835C53.9737 37.4313 54.7531 37.7892 54.9395 38.0529C55.0418 38.2099 55.1413 38.3909 55.2969 38.5059C55.4314 38.5943 55.5955 38.6378 55.73 38.7262C55.8618 38.8384 55.9935 38.9507 56.0215 39.1231C56.0508 39.4891 56.2049 39.8214 56.3113 40.1482C56.3995 40.4244 56.4905 40.6768 56.5549 40.9503C56.5829 41.1227 56.6137 41.2714 56.594 41.4382C56.591 41.8729 56.6441 42.2416 56.6299 42.7716C56.6186 42.867 56.6045 42.9861 56.5961 43.0576C56.568 43.296 56.5454 43.4867 56.5173 43.725C56.506 43.8203 56.4976 43.8918 56.4863 43.9872ZM54.3097 42.1593C54.307 41.7724 54.2428 41.0881 53.971 40.5244C53.8352 40.2425 53.7034 40.1303 53.4174 40.0965L53.3936 40.0937C53.2982 40.0824 52.9784 40.3347 52.9433 40.4272C52.744 40.887 52.4943 41.365 52.4185 41.5977C52.1756 42.2215 52.0591 42.5944 51.8401 43.2211C51.6998 43.5912 51.729 43.9571 51.6153 44.3062C51.517 44.7296 51.5296 44.8278 51.4579 45.2301C51.4523 45.2778 51.4495 45.3016 51.4438 45.3493C51.4298 45.4685 51.4185 45.5638 51.4072 45.6592C51.4016 45.7068 51.396 45.7545 51.3904 45.8022C51.3328 46.0854 51.2416 46.2438 51.2078 46.5298C51.1937 46.6489 51.1825 46.7443 51.1684 46.8635C51.1093 47.364 51.0881 47.7481 51.0444 48.323C51.0275 48.466 51.0429 48.5403 51.0527 48.6623C51.0566 49.2428 51.0144 49.6003 51.052 50.3055C51.0561 50.4752 51.0503 50.9337 51.5747 50.9956C51.5985 50.9984 51.5985 50.9984 51.6223 51.0012C51.813 51.0237 52.252 50.7856 52.3488 50.5795C52.4835 50.2571 52.6183 49.9347 52.6913 49.7258C52.7755 49.4215 52.8513 49.1888 52.9622 48.8636C53.1223 48.3267 53.1799 48.0435 53.34 47.5065C53.3484 47.435 53.3512 47.4112 53.3835 47.3425C53.4706 47.0144 53.5407 46.8294 53.6068 46.4747C53.6841 46.0247 53.7122 45.7863 53.7895 45.3363C53.8036 45.2171 53.8149 45.1218 53.8528 45.0054C53.9132 44.6984 53.9595 44.5105 54.02 44.2035C54.1057 43.6819 54.204 43.2585 54.2603 42.7818C54.2828 42.5912 54.3082 42.3767 54.3097 42.1593Z" fill="white"/>
<path d="M70.7026 39.3824C70.7179 39.4567 70.7361 39.5072 70.7221 39.6264C70.708 39.7455 70.6855 39.9362 70.6251 40.2432C70.5185 40.3273 70.3852 40.4324 70.2786 40.5165C70.2015 40.5557 70.151 40.5739 70.1034 40.5683C69.8832 40.5906 69.6743 40.5176 69.4486 40.5877C69.2466 40.6605 69.0055 40.6562 68.7853 40.6785C68.6605 40.7121 68.5147 40.7191 68.3955 40.705C68.0801 40.7161 67.8361 40.7356 67.473 40.7411C67.1098 40.7465 66.8715 40.7184 66.5588 40.7056C66.4817 40.7449 66.3779 40.8051 66.3008 40.8443C66.239 40.9579 66.1983 41.0981 66.1842 41.2172C66.1673 41.3602 66.1771 41.4822 66.163 41.6014C66.0998 41.9323 66.0842 42.2688 65.9285 42.5645C65.8962 42.6332 65.8639 42.7019 65.8555 42.7734C65.847 42.8449 65.8624 42.9192 65.8512 43.0146C65.8484 43.0384 65.8484 43.0384 65.8456 43.0622C65.7176 43.9413 65.6557 44.4657 65.5277 45.3447C65.4589 45.7233 65.4097 45.935 65.3408 46.3135C65.2973 46.4775 65.2622 46.57 65.2425 46.7369C65.0851 47.6608 65.047 48.188 64.9134 49.1147C64.8333 49.5886 64.7547 49.8451 64.6746 50.319C64.6254 50.5307 64.6085 50.6737 64.5832 50.8882C64.4271 52.0056 64.3511 52.6491 64.195 53.7666C64.1458 53.9782 64.1051 54.1184 64.056 54.3301C64.0068 54.5418 63.9661 54.682 63.9407 54.8965C63.9379 54.9204 63.9085 54.9652 63.9057 54.9891C63.886 55.1559 63.8957 55.2779 63.8788 55.4209C63.8676 55.5162 63.8535 55.6354 63.7918 55.7489C63.6416 55.9971 63.1985 56.0656 62.7695 56.0149C62.2928 55.9586 61.8302 55.7832 61.6803 55.6205C61.5723 55.5111 61.477 55.4998 61.4168 55.396C61.215 55.058 61.1155 54.8771 61.0652 54.4845C61.0442 54.4579 61.047 54.434 61.0498 54.4102C61.0695 54.2434 61.1285 54.1536 61.172 53.9896C61.4572 52.5975 61.7101 51.274 61.8621 49.9869C61.9268 49.4387 62.0645 48.6817 62.1321 48.1096C62.2981 46.7034 62.5158 45.8833 62.7169 44.3845C62.7366 44.2177 62.7689 44.149 62.7886 43.9821C62.8813 43.6064 62.9376 43.1297 63.0064 42.7512C63.0346 42.5128 63.0599 42.2983 63.0824 42.1077C63.1303 41.7025 63.1725 41.345 63.2203 40.9398C63.2021 40.8893 63.1839 40.8388 63.1419 40.7855C63.0788 40.7056 63.0157 40.6256 62.9442 40.6172C62.9204 40.6144 62.8938 40.6354 62.8699 40.6326C62.6946 40.6844 62.5011 40.6857 62.3105 40.6632C61.974 40.6476 61.6403 40.6082 61.3192 40.667C61.1467 40.6949 60.9771 40.6991 60.8102 40.6794C60.6672 40.6625 60.527 40.6218 60.4079 40.6077C60.363 40.5782 60.3181 40.5488 60.2761 40.4955C60.1556 40.2879 60.0351 40.0804 59.8375 39.912C59.7478 39.8531 59.6875 39.7493 59.6245 39.6694C59.5853 39.5922 59.5699 39.5179 59.5573 39.4198C59.5601 39.3959 59.5391 39.3693 59.5419 39.3455C59.5757 39.0594 59.7496 38.8141 60.0077 38.6754C60.1647 38.5732 60.3134 38.5424 60.5363 38.4962C60.9318 38.4221 61.1729 38.4264 61.6104 38.4055C62.1193 38.3931 62.4082 38.403 62.9143 38.4145C63.0097 38.4257 63.0573 38.4314 63.1793 38.4216C63.614 38.4246 63.8579 38.4051 64.3164 38.4109C64.3641 38.4165 64.4146 38.3983 64.4861 38.4067C64.9446 38.4125 65.2334 38.4225 65.7185 38.4072C66.034 38.3962 66.2065 38.3682 66.5458 38.3599C66.8612 38.3488 67.0463 38.419 67.3856 38.4107C67.7249 38.4025 67.9212 38.3773 68.2844 38.3719C68.332 38.3775 68.3825 38.3593 68.454 38.3677C68.8648 38.3679 69.207 38.3358 69.5406 38.3752C69.6121 38.3836 69.6836 38.3921 69.7551 38.4005C69.9794 38.5478 70.0733 38.7764 70.212 39.0345C70.3676 39.1495 70.5231 39.2645 70.7026 39.3824Z" fill="white"/>
<path d="M75.9322 40.6282C76.0527 40.8358 76.2362 41.1233 76.2081 41.3616C76.2024 41.4093 76.194 41.4808 76.1645 41.5256C75.9793 41.8663 75.5952 41.8451 75.1787 41.8926C75.1072 41.8841 75.0567 41.9023 74.9852 41.8939C74.8184 41.8742 74.681 41.8096 74.5254 41.6946C74.2507 41.5655 74.0712 41.4476 73.9087 41.1868C73.8695 41.1097 73.8779 41.0381 73.8836 40.9905C73.8948 40.8951 73.9299 40.8026 74.0098 40.7396C74.2876 40.434 74.5513 40.2476 74.878 40.1412C74.9579 40.0782 75.0799 40.0684 75.1753 40.0797C75.2229 40.0853 75.2944 40.0937 75.3155 40.1204C75.5608 40.2943 75.7486 40.3407 75.9322 40.6282ZM74.5614 46.0972C74.5417 46.264 74.522 46.4309 74.5738 46.6062C74.6256 46.7814 74.6508 46.9777 74.6283 47.1684C74.6058 47.3591 74.5356 47.5441 74.4654 47.7292C74.3363 48.0039 74.3292 48.2689 74.2421 48.597C74.1929 48.8087 74.1761 48.9517 74.1031 49.1606C74.0567 49.3484 74.0216 49.441 73.9753 49.6288C73.9205 49.8882 73.8826 50.0045 73.804 50.2611C73.7983 50.3088 73.7745 50.306 73.7689 50.3536C73.7 50.7322 73.6508 50.9439 73.5581 51.3196C73.4893 51.6981 73.3924 51.9042 73.3236 52.2827C73.2673 52.7594 73.2223 53.1408 73.1772 53.5221C73.0872 54.2848 73.0084 54.9522 72.8986 55.8817C72.8874 55.9771 72.9028 56.0514 72.8915 56.1467C72.8887 56.1705 72.8831 56.2182 72.8536 56.2631C72.7512 56.5168 72.702 56.7285 72.4468 56.8434C72.343 56.9036 72.221 56.9134 72.1257 56.9021C71.9826 56.8852 71.8691 56.8235 71.7079 56.7561C71.5257 56.6621 71.5482 56.4714 71.3716 56.3297C71.3267 56.3003 71.3029 56.2975 71.2552 56.2918C71.2075 56.2862 71.1837 56.2834 71.1599 56.2806C71.1122 56.275 71.0884 56.2721 71.0435 56.2427C70.8851 56.1515 70.7688 56.1136 70.6398 55.9775C70.5557 55.8709 70.5193 55.77 70.5124 55.6241C70.4831 55.2582 70.5323 55.0465 70.5506 54.6861C70.5928 54.3286 70.6266 54.0426 70.6604 53.7566C70.7223 53.2322 70.7758 52.7794 70.8756 52.1387C70.9416 51.784 71.0118 51.5989 71.0751 51.2681C71.1186 51.104 71.1509 51.0353 71.1706 50.8685C71.3012 50.3764 71.3616 50.0694 71.4684 49.5745C71.5119 49.4105 71.5203 49.339 71.54 49.1721C71.6186 48.9156 71.6566 48.7992 71.7113 48.5398C71.7493 48.4235 71.7577 48.352 71.7956 48.2356C71.8742 47.9791 71.8967 47.7884 71.9908 47.6062C72.0469 47.5403 72.0581 47.445 72.0694 47.3496C72.2548 46.5982 72.5117 45.8552 72.819 45.094C72.9861 44.7028 73.2049 44.487 73.4672 44.1072C73.4967 44.0623 73.5233 44.0413 73.571 44.0469C73.5948 44.0497 73.6187 44.0525 73.6425 44.0554C73.7855 44.0722 73.9313 44.0653 74.0743 44.0822C74.2412 44.1019 74.3814 44.1426 74.537 44.2576C74.7402 44.3783 74.6911 44.59 74.7134 44.8101C74.726 44.9083 74.7386 45.0064 74.7301 45.0779C74.7189 45.1733 74.6838 45.2658 74.6725 45.3611C74.6416 45.6233 74.5896 45.8588 74.5614 46.0972Z" fill="white"/>
<path d="M86.7846 43.7221C86.6063 44.2085 86.4575 44.6501 86.2708 45.2081C86.1571 45.5572 86.0659 45.7156 85.955 46.0408C85.8441 46.366 85.7767 46.5272 85.6686 46.8286C85.6335 46.9212 85.6251 46.9927 85.5928 47.0614C85.4524 47.4315 85.4033 47.6432 85.2657 47.9894C85.225 48.1296 85.1717 48.1716 85.1338 48.288C84.964 48.703 84.8853 48.9595 84.7183 49.3506C84.519 49.8104 84.4166 50.0642 84.2439 50.5029C84.0446 50.9627 83.9365 51.2641 83.7723 51.6314C83.7373 51.724 83.7078 51.7688 83.6727 51.8613C83.6292 52.0254 83.6179 52.1207 83.5772 52.2609C83.5365 52.4011 83.4832 52.4431 83.4453 52.5595C83.3779 52.7207 83.3428 52.8132 83.3021 52.9534C83.2614 53.0936 83.2291 53.1623 83.1912 53.2786C83.1238 53.4399 83.0915 53.5085 83.027 53.6459C82.8951 53.9445 82.8249 54.1296 82.7196 54.4071C82.5877 54.7057 82.5652 54.8964 82.4361 55.1712C82.0895 55.8552 82.0093 56.3291 81.4679 56.821C81.3852 56.9079 81.287 56.9205 81.1917 56.9092C81.0487 56.8923 80.8903 56.8011 80.7347 56.6861C80.3072 56.4181 80.0913 56.1993 79.8027 55.7786C79.6163 55.5149 79.5912 55.3186 79.5086 54.9947C79.3629 54.5908 79.2957 54.3412 79.2034 53.8953C79.0046 53.1227 78.5814 52.6135 78.4331 51.8227C78.3939 51.7455 78.3757 51.6951 78.3869 51.5997C78.331 51.2548 78.3297 51.0613 78.3242 50.6982C78.3047 50.4542 78.3244 50.2873 78.3315 50.0223C78.3092 49.8022 78.2727 49.7012 78.3009 49.4629C78.2814 49.2189 78.3249 49.0549 78.3558 48.7927C78.3532 48.4057 78.3547 48.1884 78.3759 47.8042C78.3661 47.6823 78.3718 47.6346 78.3886 47.4916C78.4886 46.4401 78.5492 45.7222 78.6505 44.8642C78.6927 44.5067 78.7378 44.1253 78.8123 43.6991C78.8854 43.0794 78.9599 42.6532 79.1943 42.1009C79.3275 41.9958 79.4664 41.843 79.6291 41.693C79.7091 41.63 80.1437 41.633 80.2867 41.6498C80.3344 41.6555 80.4031 41.6878 80.4746 41.6962C80.5587 41.8028 80.6666 41.9122 80.7507 42.0188C80.7689 42.0693 80.7661 42.0931 80.7871 42.1198C80.7982 42.4352 80.8597 42.7325 80.847 43.0452C80.8258 43.4293 80.8369 43.7448 80.8577 44.1823C80.8619 44.3519 80.8744 44.4501 80.8575 44.5931C80.8491 44.6646 80.8407 44.7361 80.8322 44.8076C80.8069 45.0221 80.7605 45.21 80.7352 45.4245C80.724 45.5198 80.7099 45.639 80.7225 45.7371C80.7041 46.0975 80.7264 46.3176 80.7347 46.6569C80.7178 46.7999 80.736 46.8504 80.7219 46.9696C80.6825 47.3033 80.66 47.4939 80.6473 47.8066C80.6148 48.2861 80.6049 48.5749 80.6229 49.0362C80.6297 49.5929 80.617 49.9055 80.6981 50.4468C80.7777 51.2053 80.8111 51.741 81.0267 52.3706C81.0982 52.379 81.1487 52.3608 81.2202 52.3693C81.3142 52.187 81.4587 51.9866 81.5051 51.7987C81.5627 51.5155 81.7128 51.2674 81.7915 51.0109C81.8911 50.781 81.9879 50.5749 82.0427 50.3155C82.0919 50.1038 82.1803 49.9693 82.2827 49.7155C82.461 49.2291 82.5424 48.9487 82.7445 48.4651C82.92 48.0024 83.0253 47.7249 83.2274 47.2412C83.3327 46.9637 83.4028 46.7786 83.5109 46.4772C83.6162 46.1996 83.6625 46.0118 83.7706 45.7104C83.8731 45.4566 83.9405 45.2954 84.0457 45.0179C84.1538 44.7165 84.1974 44.5524 84.3083 44.2272C84.3869 43.9706 84.436 43.7589 84.5119 43.5262C84.6171 43.2487 84.7252 42.9472 84.8543 42.6725C84.9161 42.5589 84.9568 42.4188 84.9947 42.3024C85.1168 41.8818 85.3708 41.5735 85.8223 41.4334C85.8966 41.4181 85.9737 41.3788 86.0242 41.3606C86.0957 41.3691 86.1434 41.3747 86.2149 41.3831C86.6439 41.4338 86.8933 41.7774 86.9619 42.2205C87.008 42.4435 87.0037 42.6846 86.9728 42.9468C86.9418 43.209 86.8604 43.4894 86.7846 43.7221Z" fill="white"/>
<path d="M96.2414 48.6812C96.2343 48.9462 96.2231 49.0415 96.1921 49.3037C96.1865 49.3514 96.1808 49.399 96.1752 49.4467C96.1611 49.5659 96.1471 49.685 96.1064 49.8252C96.1007 49.8729 96.0713 49.9178 96.0656 49.9654C96.0544 50.0608 96.067 50.1589 96.0557 50.2542C96.0529 50.2781 96.0529 50.2781 96.0501 50.3019C95.9728 50.752 95.9418 51.0141 95.8645 51.4642C95.7268 52.2213 95.6285 52.6446 95.4907 53.4017C95.4795 53.4971 95.45 53.5419 95.4388 53.6372C95.3222 54.0102 95.2731 54.2219 95.1565 54.5948C94.9993 55.1079 94.9361 55.4387 94.7101 55.9196C94.5221 56.284 94.393 56.5588 94.0998 56.79C93.9428 56.8923 93.8067 57.0212 93.6917 57.1768C93.6356 57.2427 93.5794 57.3086 93.5023 57.3478C93.3242 57.4234 93.1881 57.5524 93.0493 57.7051C92.9104 57.8579 92.7323 57.9335 92.5009 58.0512C92.0886 58.2684 92.0563 58.3371 91.6076 58.4532C91.5066 58.4897 91.2893 58.4882 91.051 58.46C90.9795 58.4516 90.908 58.4431 90.8603 58.4375C90.5294 58.3743 90.3388 58.3518 90.0191 58.1932C89.5622 57.9701 89.136 57.8956 88.895 57.4804C88.8529 57.4271 88.574 57.1284 88.5797 57.0807C88.5686 56.7652 88.5014 56.5156 88.4693 56.1735C88.4344 55.8552 88.4302 55.6856 88.3953 55.3673C88.3604 55.049 88.3829 54.8583 88.348 54.54C88.3313 54.2722 88.2977 54.1474 88.281 53.8796C88.2642 53.6118 88.305 53.4716 88.3121 53.2066C88.3714 52.2953 88.3884 51.7415 88.4897 50.8834C88.4982 50.8119 88.5066 50.7404 88.5151 50.6689C88.6107 49.8585 88.7357 49.4141 88.9001 48.636C88.9436 48.472 88.9759 48.4033 89.0194 48.2393C89.0573 48.1229 89.0658 48.0514 89.1037 47.9351C89.2904 47.3771 89.3985 47.0757 89.5852 46.5178C89.6905 46.2402 89.755 46.1028 89.8603 45.8252C89.9599 45.5953 90.0035 45.4313 90.1003 45.2252C90.5227 44.3084 91.0895 43.602 91.5888 43.0568C91.6688 42.9938 91.7515 42.9069 91.8315 42.8438C91.9142 42.7569 91.9732 42.6672 92.0531 42.6041C92.8834 42.1222 92.746 42.0576 93.2521 42.069C93.276 42.0719 93.2998 42.0747 93.3236 42.0775C93.7288 42.1253 94.5082 42.4832 94.6946 42.7469C94.7969 42.9039 94.8964 43.0849 95.052 43.1999C95.1865 43.2883 95.3505 43.3318 95.4851 43.4202C95.6169 43.5324 95.7486 43.6446 95.7766 43.8171C95.8059 44.1831 95.96 44.5154 96.0664 44.8422C96.1546 45.1184 96.2456 45.3708 96.31 45.6443C96.338 45.8167 96.3688 45.9654 96.3491 46.1322C96.3461 46.5669 96.3992 46.9356 96.385 47.4656C96.3737 47.561 96.3596 47.6801 96.3512 47.7516C96.323 47.99 96.3005 48.1807 96.2724 48.419C96.2611 48.5143 96.2527 48.5858 96.2414 48.6812ZM94.0648 46.8533C94.0621 46.4664 93.9979 45.7821 93.7261 45.2183C93.5902 44.9365 93.4585 44.8242 93.1725 44.7905L93.1486 44.7877C93.0533 44.7764 92.7335 45.0287 92.6984 45.1212C92.4991 45.581 92.2494 46.059 92.1736 46.2917C91.9307 46.9155 91.8142 47.2884 91.5952 47.9151C91.4548 48.2852 91.4841 48.6511 91.3704 49.0002C91.2721 49.4236 91.2847 49.5218 91.213 49.9241C91.2074 49.9718 91.2046 49.9956 91.1989 50.0433C91.1849 50.1625 91.1736 50.2578 91.1623 50.3531C91.1567 50.4008 91.1511 50.4485 91.1455 50.4962C91.0879 50.7794 90.9967 50.9378 90.9629 51.2238C90.9488 51.3429 90.9376 51.4383 90.9235 51.5574C90.8644 52.058 90.8432 52.4421 90.7995 53.017C90.7826 53.16 90.798 53.2343 90.8078 53.3563C90.8117 53.9368 90.7695 54.2943 90.8071 54.9995C90.8112 55.1692 90.8054 55.6277 91.3298 55.6896C91.3536 55.6924 91.3536 55.6924 91.3774 55.6952C91.5681 55.7177 92.0071 55.4796 92.1039 55.2735C92.2386 54.9511 92.3734 54.6286 92.4464 54.4198C92.5306 54.1155 92.6064 53.8828 92.7173 53.5576C92.8774 53.0207 92.935 52.7375 93.0951 52.2005C93.1035 52.129 93.1063 52.1052 93.1386 52.0365C93.2257 51.7084 93.2958 51.5234 93.3619 51.1687C93.4392 50.7186 93.4673 50.4803 93.5446 50.0303C93.5587 49.9111 93.57 49.8158 93.6079 49.6994C93.6683 49.3924 93.7146 49.2045 93.7751 48.8975C93.8608 48.3759 93.9591 47.9525 94.0154 47.4758C94.0379 47.2852 94.0633 47.0707 94.0648 46.8533Z" fill="white"/>
<path d="M107.362 45.3784C107.375 45.4765 107.366 45.5481 107.358 45.6196C107.335 45.8102 107.268 45.9714 107.192 46.2042C107.076 46.5771 106.982 46.7593 106.841 47.1294C106.806 47.2219 106.777 47.2668 106.742 47.3593C106.366 48.0882 106.062 48.6083 105.745 49.2475C105.525 49.6807 105.257 50.1082 105.013 50.5385C104.828 50.8792 104.642 51.2198 104.481 51.5632C104.349 51.8618 104.193 52.1576 104.038 52.4534C103.979 52.5431 103.92 52.6328 103.882 52.7491C103.819 53.08 103.594 53.3435 103.459 53.6659C103.378 53.9463 103.323 54.2057 103.292 54.4679C103.273 54.6347 103.28 54.7805 103.26 54.9474C103.267 55.0932 103.247 55.26 103.227 55.4269C103.205 55.6176 103.159 55.8054 103.136 55.9961C103.05 56.1068 102.965 56.2175 102.876 56.3521C102.749 56.4095 102.624 56.4431 102.473 56.4978C102.255 56.4963 102.006 56.5635 101.767 56.5353C101.648 56.5212 101.532 56.4833 101.418 56.4216C100.988 56.1775 100.828 55.8928 100.638 55.4594C100.426 54.9995 100.463 54.6896 100.427 54.1778C100.414 54.0797 100.425 53.9843 100.434 53.9128C100.448 53.7937 100.486 53.6773 100.503 53.5343C100.549 53.3464 100.608 53.2567 100.654 53.0689C100.776 52.6483 100.831 52.3889 100.977 51.9712C101.082 51.6936 101.147 51.5562 101.276 51.2815C101.402 51.0305 101.494 50.8721 101.62 50.6212C101.746 50.3703 101.84 50.1881 101.964 49.961C102.146 49.6442 102.331 49.3036 102.493 48.9601C102.657 48.5928 102.863 48.2788 103.024 47.9354C103.191 47.5443 103.403 47.1826 103.612 46.8448C103.795 46.528 103.974 46.2351 104.157 45.9183C104.189 45.8496 104.195 45.8019 104.203 45.7304C104.212 45.6589 104.22 45.5874 104.181 45.5103C104.121 45.4065 104.028 45.3714 103.933 45.3601C103.885 45.3545 103.813 45.3461 103.763 45.3643C103.543 45.3866 103.317 45.4566 103.133 45.5799C102.896 45.7453 102.657 45.9345 102.483 46.1797C102.309 46.425 102.161 46.6493 101.993 46.8469C101.881 46.9787 101.837 47.1427 101.725 47.2745C101.666 47.3642 101.586 47.4272 101.482 47.4875C101.269 47.6556 101.101 47.8533 100.795 47.9863C100.718 48.0256 100.67 48.0199 100.599 48.0115C100.527 48.0031 100.48 47.9974 100.414 47.9413C100.105 47.6874 99.8811 47.5401 99.7565 47.1629C99.7019 47.0114 99.6921 46.8894 99.709 46.7464C99.7259 46.6034 99.7932 46.4422 99.8606 46.281C100.016 45.9852 100.047 45.723 100.209 45.3796C100.464 44.8539 100.652 44.4895 100.941 44.0886C101.056 43.933 101.213 43.8307 101.349 43.7018C101.861 43.2547 102.452 42.9619 103.139 42.8739C103.213 42.8585 103.287 42.8431 103.338 42.8249C103.704 42.7956 104.032 42.8827 104.356 42.8001C104.43 42.7847 104.502 42.7931 104.573 42.8016L104.853 42.883C105.033 43.0009 105.274 43.0052 105.459 43.0754C105.895 43.2718 106.272 43.558 106.623 43.8652C106.817 44.0574 106.983 44.2944 107.074 44.5468C107.186 44.8259 107.33 45.0363 107.362 45.3784ZM102.404 58.713C102.623 58.908 102.728 59.0413 102.819 59.2937C102.856 59.3946 102.871 59.469 102.863 59.5405C102.854 59.612 102.822 59.6807 102.79 59.7494C102.601 60.1138 102.457 60.3143 102.116 60.5399C101.906 60.6842 101.742 60.6406 101.498 60.6602C101.4 60.6727 101.328 60.6643 101.257 60.6559C101.209 60.6502 101.137 60.6418 101.069 60.6095C100.908 60.5421 100.845 60.4622 100.713 60.35C100.581 60.2378 100.462 60.2237 100.357 60.0904C100.191 59.8534 100.039 59.7145 100.025 59.4229C100.033 59.3514 100.039 59.3037 100.044 59.2561C100.078 58.97 100.199 58.7668 100.352 58.4949C100.411 58.4051 100.527 58.4431 100.628 58.4066C100.928 58.3212 101.109 58.2218 101.422 58.2345L101.446 58.2373C101.66 58.2627 101.741 58.3931 101.924 58.4871C102.106 58.5811 102.252 58.5742 102.404 58.713Z" fill="white"/>
</svg>