<svg width="24" height="24" viewBox="0 0 24 24" fill="none" xmlns="http://www.w3.org/2000/svg">
<path d="M1.77054 12.6667C6.62001 12.6667 9.23212 12.6667 14.0816 12.6667C16.1577 12.6667 18.2337 12.6667 20.3151 12.6667C21.3425 12.6667 21.3425 10.6667 20.3151 10.6667C15.4656 10.6667 10.6215 10.6667 5.77202 10.6667C3.69595 10.6667 3.85192 10.6667 1.77054 10.6667C0.743154 10.6667 0.743154 12.6667 1.77054 12.6667Z" fill="white"/>
<path d="M15.0357 5.59004C16.4484 7.19156 17.856 8.79308 19.2637 10.4009C19.6768 10.8719 20.0848 11.3367 20.4979 11.8077C20.5897 11.9082 20.6815 12.0526 20.7835 12.1343C20.8141 12.1594 20.8804 12.2787 20.911 12.285C21.0334 11.6318 20.9977 11.4434 20.7988 11.7386C20.7529 11.7951 20.7019 11.8454 20.656 11.9019C18.9322 13.9117 17.3664 16.1475 15.816 18.3582C15.1734 19.2689 16.2546 20.6129 16.8972 19.6897C18.3763 17.5794 19.8706 15.4629 21.4976 13.516C21.671 13.3087 21.8597 13.114 22.0229 12.9005C22.5023 12.2473 22.3952 11.4623 21.9158 10.8593C21.3854 10.1936 20.8039 9.58441 20.248 8.95009C18.8761 7.38625 17.499 5.82242 16.122 4.25858C15.3978 3.43584 14.3165 4.7673 15.0408 5.59004H15.0357Z" fill="white"/>
</svg>
