<svg width="16" height="8" viewBox="0 0 16 8" fill="none" xmlns="http://www.w3.org/2000/svg">
<path d="M1.59004 0.249C3.19156 1.7495 4.79308 3.24459 6.40087 4.73967C6.87191 5.17845 7.33666 5.61181 7.8077 6.05058C7.90819 6.14809 8.05264 6.24559 8.13428 6.35393C8.1594 6.38643 8.27873 6.45685 8.28501 6.48935C7.63185 6.61936 7.44343 6.58144 7.73861 6.37018C7.79514 6.32143 7.84538 6.26726 7.90191 6.2185C9.91165 4.38757 12.1475 2.72456 14.3582 1.0778C15.2689 0.395257 16.6129 1.54366 15.6897 2.22619C13.5794 3.79712 11.4629 5.38429 9.51598 7.11231C9.30873 7.29648 9.11404 7.49691 8.9005 7.67025C8.24733 8.17945 7.46227 8.06569 6.85935 7.5565C6.19362 6.99313 5.58441 6.3756 4.95009 5.78515C3.38625 4.32798 1.82242 2.8654 0.258581 1.40281C-0.56416 0.633604 0.767298 -0.514795 1.59004 0.254416L1.59004 0.249Z" fill="#1F171A"/>
</svg>
